<?xml version="1.0" encoding="utf-8"?>
<!-- Generator: Adobe Illustrator 17.0.0, SVG Export Plug-In . SVG Version: 6.00 Build 0)  -->
<!DOCTYPE svg PUBLIC "-//W3C//DTD SVG 1.1//EN" "http://www.w3.org/Graphics/SVG/1.1/DTD/svg11.dtd">
<svg version="1.1" id="Layer_1" xmlns="http://www.w3.org/2000/svg" xmlns:xlink="http://www.w3.org/1999/xlink" x="0px" y="0px"
	 width="140px" height="76px" viewBox="0 0 140 76" enable-background="new 0 0 140 76" xml:space="preserve">
<g>
	<g>
		<g>
			<g>
				<path fill="#BE270D" d="M124.858,15.966c-2.327-0.813-4.825-1.26-7.43-1.26c-12.437,0-22.519,10.082-22.519,22.519
					s10.082,22.519,22.519,22.519c2.755,0,5.393-0.497,7.833-1.402C132.663,38.668,127.317,21.924,124.858,15.966z"/>
				<path fill="#BE270D" d="M135.792,50.252c2.614-3.678,4.156-8.171,4.156-13.027c0-4.573-1.367-8.825-3.709-12.377
					C137.859,34.196,137.096,43.217,135.792,50.252z"/>
				<path fill="#AA250D" d="M135.792,50.252c1.305-7.035,2.067-16.056,0.447-25.404c-2.694-4.086-6.681-7.24-11.381-8.882
					c2.459,5.958,7.805,22.702,0.403,42.377C129.535,56.756,133.193,53.908,135.792,50.252z"/>
			</g>
			<path fill="#D84A30" d="M134.406,10.325l-7.767,3.315c0,0,11.461,21.407,0.474,47.17l7.672,3.315
				C134.785,64.125,146.767,35.283,134.406,10.325z"/>
		</g>
		<g>
			<g>
				<path fill="#BE270D" d="M15.142,58.484c2.327,0.813,4.825,1.26,7.43,1.26c12.437,0,22.519-10.082,22.519-22.519
					S35.009,14.706,22.572,14.706c-2.755,0-5.393,0.497-7.833,1.402C7.337,35.782,12.683,52.526,15.142,58.484z"/>
				<path fill="#BE270D" d="M4.208,24.198c-2.614,3.678-4.156,8.171-4.156,13.027c0,4.573,1.367,8.825,3.709,12.377
					C2.141,40.254,2.904,31.233,4.208,24.198z"/>
				<path fill="#AA250D" d="M4.208,24.198c-1.305,7.035-2.067,16.056-0.447,25.404c2.694,4.086,6.681,7.24,11.381,8.882
					c-2.459-5.958-7.805-22.702-0.403-42.377C10.465,17.694,6.807,20.542,4.208,24.198z"/>
			</g>
			<path fill="#D84A30" d="M5.594,64.125l7.767-3.315c0,0-11.461-21.407-0.474-47.17l-7.672-3.315
				C5.215,10.325-6.767,39.167,5.594,64.125z"/>
		</g>
		<rect x="21.652" fill="#A3733A" width="94" height="76"/>
		<g>
			<circle fill="#FFFFFF" stroke="#DFE7E7" stroke-width="2" stroke-miterlimit="10" cx="94.127" cy="37.118" r="13.569"/>
			<circle fill="#DFE7E7" stroke="#A5A5A5" stroke-width="2" stroke-miterlimit="10" cx="94.127" cy="36.976" r="6.749"/>
		</g>
		<g>
			<circle fill="#FFFFFF" stroke="#DFE7E7" stroke-width="2" stroke-miterlimit="10" cx="45.82" cy="37.118" r="13.569"/>
			<circle fill="#DFE7E7" stroke="#A5A5A5" stroke-width="2" stroke-miterlimit="10" cx="45.82" cy="36.976" r="6.749"/>
		</g>
	</g>
	<g>
		<path d="M69.178,27.221h-0.08l-4.52,2.44l-0.68-2.68l5.679-3.04h3v25.996h-3.399V27.221z"/>
	</g>
</g>
</svg>
