<?xml version="1.0" encoding="utf-8"?>
<!-- Generator: Adobe Illustrator 17.0.0, SVG Export Plug-In . SVG Version: 6.00 Build 0)  -->
<!DOCTYPE svg PUBLIC "-//W3C//DTD SVG 1.1//EN" "http://www.w3.org/Graphics/SVG/1.1/DTD/svg11.dtd">
<svg version="1.1" id="Layer_1" xmlns="http://www.w3.org/2000/svg" xmlns:xlink="http://www.w3.org/1999/xlink" x="0px" y="0px"
	 width="140px" height="132px" viewBox="0 0 140 132" enable-background="new 0 0 140 132" xml:space="preserve">
<g>
	<g>
		<g>
			<path fill="#BE270D" d="M124.858,13.977c-2.327-0.813-4.825-1.26-7.43-1.26c-12.437,0-22.519,10.082-22.519,22.519
				s10.082,22.519,22.519,22.519c2.755,0,5.393-0.497,7.833-1.402C132.663,36.679,127.317,19.934,124.858,13.977z"/>
			<path fill="#BE270D" d="M135.792,48.262c2.614-3.678,4.156-8.171,4.156-13.027c0-4.573-1.367-8.825-3.709-12.377
				C137.859,32.206,137.096,41.228,135.792,48.262z"/>
			<path fill="#AA250D" d="M135.792,48.262c1.305-7.035,2.067-16.056,0.447-25.404c-2.694-4.086-6.681-7.24-11.381-8.882
				c2.459,5.958,7.805,22.702,0.403,42.377C129.535,54.767,133.193,51.918,135.792,48.262z"/>
		</g>
		<path fill="#D84A30" d="M134.406,8.335l-7.767,3.315c0,0,11.461,21.407,0.474,47.17l7.672,3.315
			C134.785,62.136,146.767,33.294,134.406,8.335z"/>
	</g>
	<g>
		<g>
			<path fill="#BE270D" d="M15.142,56.495c2.327,0.813,4.825,1.26,7.43,1.26c12.437,0,22.519-10.082,22.519-22.519
				S35.009,12.716,22.572,12.716c-2.755,0-5.393,0.497-7.833,1.402C7.337,33.793,12.683,50.537,15.142,56.495z"/>
			<path fill="#BE270D" d="M4.208,22.209c-2.614,3.678-4.156,8.171-4.156,13.027c0,4.573,1.367,8.825,3.709,12.377
				C2.141,38.265,2.904,29.244,4.208,22.209z"/>
			<path fill="#AA250D" d="M4.208,22.209c-1.305,7.035-2.067,16.056-0.447,25.404c2.694,4.086,6.681,7.24,11.381,8.882
				c-2.459-5.958-7.805-22.702-0.403-42.377C10.465,15.704,6.807,18.553,4.208,22.209z"/>
		</g>
		<path fill="#D84A30" d="M5.594,62.136l7.767-3.315c0,0-11.461-21.407-0.474-47.17L5.215,8.335
			C5.215,8.335-6.767,37.177,5.594,62.136z"/>
	</g>
	<g>
		<g>
			<path fill="#BE270D" d="M124.858,72.513c-2.327-0.813-4.825-1.26-7.43-1.26c-12.437,0-22.519,10.082-22.519,22.519
				s10.082,22.519,22.519,22.519c2.755,0,5.393-0.497,7.833-1.402C132.663,95.215,127.317,78.471,124.858,72.513z"/>
			<path fill="#BE270D" d="M135.792,106.799c2.614-3.678,4.156-8.171,4.156-13.027c0-4.573-1.367-8.825-3.709-12.377
				C137.859,90.743,137.096,99.764,135.792,106.799z"/>
			<path fill="#AA250D" d="M135.792,106.799c1.305-7.035,2.067-16.056,0.447-25.404c-2.694-4.086-6.681-7.24-11.381-8.882
				c2.459,5.958,7.805,22.702,0.403,42.377C129.535,113.303,133.193,110.455,135.792,106.799z"/>
		</g>
		<path fill="#D84A30" d="M134.406,66.872l-7.767,3.315c0,0,11.461,21.407,0.474,47.17l7.672,3.315
			C134.785,120.672,146.767,91.83,134.406,66.872z"/>
	</g>
	<g>
		<g>
			<path fill="#BE270D" d="M15.142,115.031c2.327,0.813,4.825,1.26,7.43,1.26c12.437,0,22.519-10.082,22.519-22.519
				S35.009,71.253,22.572,71.253c-2.755,0-5.393,0.497-7.833,1.402C7.337,92.329,12.683,109.073,15.142,115.031z"/>
			<path fill="#BE270D" d="M4.208,80.745c-2.614,3.678-4.156,8.171-4.156,13.027c0,4.573,1.367,8.825,3.709,12.377
				C2.141,96.801,2.904,87.78,4.208,80.745z"/>
			<path fill="#AA250D" d="M4.208,80.745c-1.305,7.035-2.067,16.056-0.447,25.404c2.694,4.086,6.681,7.24,11.381,8.882
				c-2.459-5.958-7.805-22.702-0.403-42.377C10.465,74.241,6.807,77.089,4.208,80.745z"/>
		</g>
		<path fill="#D84A30" d="M5.594,120.672l7.767-3.315c0,0-11.461-21.407-0.474-47.17l-7.672-3.315
			C5.215,66.872-6.767,95.714,5.594,120.672z"/>
	</g>
	<rect x="22.53" fill="#A3733A" width="93" height="132"/>
	<g>
		<circle fill="#FFFFFF" stroke="#DFE7E7" stroke-width="2" stroke-miterlimit="10" cx="94.127" cy="33.424" r="13.569"/>
		<circle fill="#DFE7E7" stroke="#A5A5A5" stroke-width="2" stroke-miterlimit="10" cx="94.127" cy="33.282" r="6.749"/>
	</g>
	<g>
		<circle fill="#FFFFFF" stroke="#DFE7E7" stroke-width="2" stroke-miterlimit="10" cx="45.82" cy="32.856" r="13.569"/>
		<circle fill="#DFE7E7" stroke="#A5A5A5" stroke-width="2" stroke-miterlimit="10" cx="45.82" cy="32.714" r="6.749"/>
	</g>
	<g>
		<circle fill="#FFFFFF" stroke="#DFE7E7" stroke-width="2" stroke-miterlimit="10" cx="94.127" cy="93.665" r="13.569"/>
		<circle fill="#DFE7E7" stroke="#A5A5A5" stroke-width="2" stroke-miterlimit="10" cx="94.127" cy="93.523" r="6.749"/>
	</g>
	<g>
		<circle fill="#FFFFFF" stroke="#DFE7E7" stroke-width="2" stroke-miterlimit="10" cx="45.82" cy="93.097" r="13.569"/>
		<circle fill="#DFE7E7" stroke="#A5A5A5" stroke-width="2" stroke-miterlimit="10" cx="45.82" cy="92.955" r="6.749"/>
	</g>
</g>
<g>
	<path d="M59.561,56.033h-0.08l-4.52,2.44l-0.68-2.68l5.679-3.04h3v25.996h-3.399V56.033z"/>
	<path d="M85.719,65.471c0,8.838-3.28,13.718-9.039,13.718c-5.079,0-8.519-4.759-8.599-13.358c0-8.718,3.76-13.518,9.039-13.518
		C82.599,52.313,85.719,57.193,85.719,65.471z M71.601,65.871c0,6.759,2.08,10.598,5.279,10.598c3.6,0,5.319-4.199,5.319-10.838
		c0-6.399-1.64-10.598-5.279-10.598C73.841,55.033,71.601,58.792,71.601,65.871z"/>
</g>
</svg>
