<?xml version="1.0" encoding="utf-8"?>
<!-- Generator: Adobe Illustrator 17.0.0, SVG Export Plug-In . SVG Version: 6.00 Build 0)  -->
<!DOCTYPE svg PUBLIC "-//W3C//DTD SVG 1.1//EN" "http://www.w3.org/Graphics/SVG/1.1/DTD/svg11.dtd">
<svg version="1.1" id="Layer_1" xmlns="http://www.w3.org/2000/svg" xmlns:xlink="http://www.w3.org/1999/xlink" x="0px" y="0px"
	 width="140px" height="76px" viewBox="0 0 140 76" enable-background="new 0 0 140 76" xml:space="preserve">
<g>
	<g>
		<g>
			<g>
				<path fill="#BE270D" d="M124.858,16.383c-2.327-0.813-4.825-1.26-7.43-1.26c-12.437,0-22.519,10.082-22.519,22.519
					s10.082,22.519,22.519,22.519c2.755,0,5.393-0.497,7.833-1.402C132.663,39.085,127.317,22.341,124.858,16.383z"/>
				<path fill="#BE270D" d="M135.792,50.669c2.614-3.678,4.156-8.171,4.156-13.027c0-4.573-1.367-8.825-3.709-12.377
					C137.859,34.613,137.096,43.634,135.792,50.669z"/>
				<path fill="#AA250D" d="M135.792,50.669c1.305-7.035,2.067-16.056,0.447-25.404c-2.694-4.086-6.681-7.24-11.381-8.882
					c2.459,5.958,7.805,22.702,0.403,42.377C129.535,57.174,133.193,54.325,135.792,50.669z"/>
			</g>
			<path fill="#D84A30" d="M134.406,10.742l-7.767,3.315c0,0,11.461,21.407,0.474,47.17l7.672,3.315
				C134.785,64.543,146.767,35.701,134.406,10.742z"/>
		</g>
		<g>
			<g>
				<path fill="#BE270D" d="M15.142,58.901c2.327,0.813,4.825,1.26,7.43,1.26c12.437,0,22.519-10.082,22.519-22.519
					S35.009,15.123,22.572,15.123c-2.755,0-5.393,0.497-7.833,1.402C7.337,36.199,12.683,52.944,15.142,58.901z"/>
				<path fill="#BE270D" d="M4.208,24.616c-2.614,3.678-4.156,8.171-4.156,13.027c0,4.573,1.367,8.825,3.709,12.377
					C2.141,40.672,2.904,31.65,4.208,24.616z"/>
				<path fill="#AA250D" d="M4.208,24.616C2.904,31.65,2.141,40.672,3.762,50.019c2.694,4.086,6.681,7.24,11.381,8.882
					c-2.459-5.958-7.805-22.702-0.403-42.377C10.465,18.111,6.807,20.96,4.208,24.616z"/>
			</g>
			<path fill="#D84A30" d="M5.594,64.543l7.767-3.315c0,0-11.461-21.407-0.474-47.17l-7.672-3.315
				C5.215,10.742-6.767,39.584,5.594,64.543z"/>
		</g>
		<rect x="21.56" fill="#A3733A" width="94" height="76"/>
		<g>
			<circle fill="#FFFFFF" stroke="#DFE7E7" stroke-width="2" stroke-miterlimit="10" cx="94.127" cy="37.536" r="13.569"/>
			<circle fill="#DFE7E7" stroke="#A5A5A5" stroke-width="2" stroke-miterlimit="10" cx="94.127" cy="37.394" r="6.749"/>
		</g>
		<g>
			<circle fill="#FFFFFF" stroke="#DFE7E7" stroke-width="2" stroke-miterlimit="10" cx="45.82" cy="37.536" r="13.569"/>
			<circle fill="#DFE7E7" stroke="#A5A5A5" stroke-width="2" stroke-miterlimit="10" cx="45.82" cy="37.394" r="6.749"/>
		</g>
	</g>
	<g>
		<path d="M61.702,51.635v-2.16l2.76-2.68c6.639-6.319,9.638-9.678,9.678-13.598c0-2.64-1.279-5.079-5.159-5.079
			c-2.359,0-4.319,1.2-5.519,2.2l-1.12-2.479c1.8-1.52,4.359-2.64,7.359-2.64c5.599,0,7.958,3.839,7.958,7.559
			c0,4.799-3.479,8.679-8.958,13.958l-2.08,1.919v0.08h11.678v2.919H61.702z"/>
	</g>
</g>
</svg>
