<?xml version="1.0" encoding="utf-8"?>
<!-- Generator: Adobe Illustrator 17.0.0, SVG Export Plug-In . SVG Version: 6.00 Build 0)  -->
<!DOCTYPE svg PUBLIC "-//W3C//DTD SVG 1.1//EN" "http://www.w3.org/Graphics/SVG/1.1/DTD/svg11.dtd">
<svg version="1.1" id="Layer_1" xmlns="http://www.w3.org/2000/svg" xmlns:xlink="http://www.w3.org/1999/xlink" x="0px" y="0px"
	 width="140px" height="76px" viewBox="0 0 140 76" enable-background="new 0 0 140 76" xml:space="preserve">
<g>
	<g>
		<g>
			<g>
				<path fill="#BE270D" d="M124.858,16.489c-2.327-0.813-4.825-1.26-7.43-1.26c-12.437,0-22.519,10.082-22.519,22.519
					s10.082,22.519,22.519,22.519c2.755,0,5.393-0.497,7.833-1.402C132.663,39.191,127.317,22.447,124.858,16.489z"/>
				<path fill="#BE270D" d="M135.792,50.775c2.614-3.678,4.156-8.171,4.156-13.027c0-4.573-1.367-8.825-3.709-12.377
					C137.859,34.719,137.096,43.74,135.792,50.775z"/>
				<path fill="#AA250D" d="M135.792,50.775c1.305-7.035,2.067-16.056,0.447-25.404c-2.694-4.086-6.681-7.24-11.381-8.882
					c2.459,5.958,7.805,22.702,0.403,42.377C129.535,57.279,133.193,54.431,135.792,50.775z"/>
			</g>
			<path fill="#D84A30" d="M134.406,10.848l-7.767,3.315c0,0,11.461,21.407,0.474,47.17l7.672,3.315
				C134.785,64.648,146.767,35.806,134.406,10.848z"/>
		</g>
		<g>
			<g>
				<path fill="#BE270D" d="M15.142,59.007c2.327,0.813,4.825,1.26,7.43,1.26c12.437,0,22.519-10.082,22.519-22.519
					S35.009,15.229,22.572,15.229c-2.755,0-5.393,0.497-7.833,1.402C7.337,36.305,12.683,53.049,15.142,59.007z"/>
				<path fill="#BE270D" d="M4.208,24.721c-2.614,3.678-4.156,8.171-4.156,13.027c0,4.573,1.367,8.825,3.709,12.377
					C2.141,40.777,2.904,31.756,4.208,24.721z"/>
				<path fill="#AA250D" d="M4.208,24.721c-1.305,7.035-2.067,16.056-0.447,25.404c2.694,4.086,6.681,7.24,11.381,8.882
					c-2.459-5.958-7.805-22.702-0.403-42.377C10.465,18.217,6.807,21.065,4.208,24.721z"/>
			</g>
			<path fill="#D84A30" d="M5.594,64.648l7.767-3.315c0,0-11.461-21.407-0.474-47.17l-7.672-3.315
				C5.215,10.848-6.767,39.69,5.594,64.648z"/>
		</g>
		<rect x="20.871" fill="#A3733A" width="94" height="76"/>
		<g>
			<circle fill="#FFFFFF" stroke="#DFE7E7" stroke-width="2" stroke-miterlimit="10" cx="94.127" cy="37.641" r="13.569"/>
			<circle fill="#DFE7E7" stroke="#A5A5A5" stroke-width="2" stroke-miterlimit="10" cx="94.127" cy="37.499" r="6.749"/>
		</g>
		<g>
			<circle fill="#FFFFFF" stroke="#DFE7E7" stroke-width="2" stroke-miterlimit="10" cx="45.82" cy="37.641" r="13.569"/>
			<circle fill="#DFE7E7" stroke="#A5A5A5" stroke-width="2" stroke-miterlimit="10" cx="45.82" cy="37.499" r="6.749"/>
		</g>
	</g>
	<g>
		<path d="M72.56,51.396v-7.079H60.481v-2.319L72.08,25.401h3.799v16.158h3.64v2.759h-3.64v7.079H72.56z M72.56,41.558V32.88
			c0-1.36,0.04-2.72,0.12-4.08h-0.12c-0.8,1.52-1.439,2.64-2.159,3.839l-6.359,8.839v0.08H72.56z"/>
	</g>
</g>
</svg>
