<?xml version="1.0" encoding="utf-8"?>
<!-- Generator: Adobe Illustrator 17.0.0, SVG Export Plug-In . SVG Version: 6.00 Build 0)  -->
<!DOCTYPE svg PUBLIC "-//W3C//DTD SVG 1.1//EN" "http://www.w3.org/Graphics/SVG/1.1/DTD/svg11.dtd">
<svg version="1.1" id="Layer_1" xmlns="http://www.w3.org/2000/svg" xmlns:xlink="http://www.w3.org/1999/xlink" x="0px" y="0px"
	 width="140px" height="132px" viewBox="0 0 140 132" enable-background="new 0 0 140 132" xml:space="preserve">
<g>
	<g>
		<g>
			<path fill="#BE270D" d="M124.858,14.463c-2.327-0.813-4.825-1.26-7.43-1.26c-12.437,0-22.519,10.082-22.519,22.519
				s10.082,22.519,22.519,22.519c2.755,0,5.393-0.497,7.833-1.402C132.663,37.165,127.317,20.421,124.858,14.463z"/>
			<path fill="#BE270D" d="M135.792,48.749c2.614-3.678,4.156-8.171,4.156-13.027c0-4.573-1.367-8.825-3.709-12.377
				C137.859,32.693,137.096,41.715,135.792,48.749z"/>
			<path fill="#AA250D" d="M135.792,48.749c1.305-7.035,2.067-16.056,0.447-25.404c-2.694-4.086-6.681-7.24-11.381-8.882
				c2.459,5.958,7.805,22.702,0.403,42.377C129.535,55.254,133.193,52.405,135.792,48.749z"/>
		</g>
		<path fill="#D84A30" d="M134.406,8.822l-7.767,3.315c0,0,11.461,21.407,0.474,47.17l7.672,3.315
			C134.785,62.623,146.767,33.781,134.406,8.822z"/>
	</g>
	<g>
		<g>
			<path fill="#BE270D" d="M15.142,56.981c2.327,0.813,4.825,1.26,7.43,1.26c12.437,0,22.519-10.082,22.519-22.519
				S35.009,13.203,22.572,13.203c-2.755,0-5.393,0.497-7.833,1.402C7.337,34.28,12.683,51.024,15.142,56.981z"/>
			<path fill="#BE270D" d="M4.208,22.696c-2.614,3.678-4.156,8.171-4.156,13.027c0,4.573,1.367,8.825,3.709,12.377
				C2.141,38.752,2.904,29.73,4.208,22.696z"/>
			<path fill="#AA250D" d="M4.208,22.696C2.904,29.73,2.141,38.752,3.762,48.099c2.694,4.086,6.681,7.24,11.381,8.882
				c-2.459-5.958-7.805-22.702-0.403-42.377C10.465,16.191,6.807,19.04,4.208,22.696z"/>
		</g>
		<path fill="#D84A30" d="M5.594,62.623l7.767-3.315c0,0-11.461-21.407-0.474-47.17L5.215,8.822
			C5.215,8.822-6.767,37.664,5.594,62.623z"/>
	</g>
	<g>
		<g>
			<path fill="#BE270D" d="M124.858,73c-2.327-0.813-4.825-1.26-7.43-1.26c-12.437,0-22.519,10.082-22.519,22.519
				s10.082,22.519,22.519,22.519c2.755,0,5.393-0.497,7.833-1.402C132.663,95.702,127.317,78.958,124.858,73z"/>
			<path fill="#BE270D" d="M135.792,107.285c2.614-3.678,4.156-8.171,4.156-13.027c0-4.573-1.367-8.825-3.709-12.377
				C137.859,91.229,137.096,100.251,135.792,107.285z"/>
			<path fill="#AA250D" d="M135.792,107.285c1.305-7.035,2.067-16.056,0.447-25.404c-2.694-4.086-6.681-7.24-11.381-8.882
				c2.459,5.958,7.805,22.702,0.403,42.377C129.535,113.79,133.193,110.941,135.792,107.285z"/>
		</g>
		<path fill="#D84A30" d="M134.406,67.359l-7.767,3.315c0,0,11.461,21.407,0.474,47.17l7.672,3.315
			C134.785,121.159,146.767,92.317,134.406,67.359z"/>
	</g>
	<g>
		<g>
			<path fill="#BE270D" d="M15.142,115.518c2.327,0.813,4.825,1.26,7.43,1.26c12.437,0,22.519-10.082,22.519-22.519
				S35.009,71.739,22.572,71.739c-2.755,0-5.393,0.497-7.833,1.402C7.337,92.816,12.683,109.56,15.142,115.518z"/>
			<path fill="#BE270D" d="M4.208,81.232c-2.614,3.678-4.156,8.171-4.156,13.027c0,4.573,1.367,8.825,3.709,12.377
				C2.141,97.288,2.904,88.267,4.208,81.232z"/>
			<path fill="#AA250D" d="M4.208,81.232c-1.305,7.035-2.067,16.056-0.447,25.404c2.694,4.086,6.681,7.24,11.381,8.882
				c-2.459-5.958-7.805-22.702-0.403-42.377C10.465,74.727,6.807,77.576,4.208,81.232z"/>
		</g>
		<path fill="#D84A30" d="M5.594,121.159l7.767-3.315c0,0-11.461-21.407-0.474-47.17l-7.672-3.315
			C5.215,67.359-6.767,96.2,5.594,121.159z"/>
	</g>
	<rect x="22.626" fill="#A3733A" width="93" height="132"/>
	<g>
		<circle fill="#FFFFFF" stroke="#DFE7E7" stroke-width="2" stroke-miterlimit="10" cx="94.127" cy="33.911" r="13.569"/>
		<circle fill="#DFE7E7" stroke="#A5A5A5" stroke-width="2" stroke-miterlimit="10" cx="94.127" cy="33.769" r="6.749"/>
	</g>
	<g>
		<circle fill="#FFFFFF" stroke="#DFE7E7" stroke-width="2" stroke-miterlimit="10" cx="45.82" cy="33.343" r="13.569"/>
		<circle fill="#DFE7E7" stroke="#A5A5A5" stroke-width="2" stroke-miterlimit="10" cx="45.82" cy="33.2" r="6.749"/>
	</g>
	<g>
		<circle fill="#FFFFFF" stroke="#DFE7E7" stroke-width="2" stroke-miterlimit="10" cx="94.127" cy="94.152" r="13.569"/>
		<circle fill="#DFE7E7" stroke="#A5A5A5" stroke-width="2" stroke-miterlimit="10" cx="94.127" cy="94.01" r="6.749"/>
	</g>
	<g>
		<circle fill="#FFFFFF" stroke="#DFE7E7" stroke-width="2" stroke-miterlimit="10" cx="45.82" cy="93.584" r="13.569"/>
		<circle fill="#DFE7E7" stroke="#A5A5A5" stroke-width="2" stroke-miterlimit="10" cx="45.82" cy="93.442" r="6.749"/>
	</g>
</g>
<g>
	<path d="M77.559,55.603H67.64l-1,6.679c0.601-0.08,1.16-0.16,2.12-0.16c2,0,3.999,0.44,5.599,1.399
		c2.04,1.16,3.72,3.399,3.72,6.679c0,5.079-4.039,8.878-9.679,8.878c-2.839,0-5.238-0.8-6.479-1.6l0.88-2.68
		c1.08,0.64,3.199,1.44,5.559,1.44c3.32,0,6.159-2.16,6.159-5.639c-0.04-3.359-2.279-5.759-7.479-5.759c-1.479,0-2.64,0.16-3.6,0.28
		l1.68-12.478h12.438V55.603z"/>
</g>
</svg>
