<?xml version="1.0" encoding="utf-8"?>
<!-- Generator: Adobe Illustrator 17.0.0, SVG Export Plug-In . SVG Version: 6.00 Build 0)  -->
<!DOCTYPE svg PUBLIC "-//W3C//DTD SVG 1.1//EN" "http://www.w3.org/Graphics/SVG/1.1/DTD/svg11.dtd">
<svg version="1.1" id="Layer_1" xmlns="http://www.w3.org/2000/svg" xmlns:xlink="http://www.w3.org/1999/xlink" x="0px" y="0px"
	 width="140px" height="132px" viewBox="0 0 140 132" enable-background="new 0 0 140 132" xml:space="preserve">
<g>
	<g>
		<g>
			<path fill="#BE270D" d="M124.858,14.474c-2.327-0.813-4.825-1.26-7.43-1.26c-12.437,0-22.519,10.082-22.519,22.519
				s10.082,22.519,22.519,22.519c2.755,0,5.393-0.497,7.833-1.402C132.663,37.176,127.317,20.432,124.858,14.474z"/>
			<path fill="#BE270D" d="M135.792,48.76c2.614-3.678,4.156-8.171,4.156-13.027c0-4.573-1.367-8.825-3.709-12.377
				C137.859,32.704,137.096,41.726,135.792,48.76z"/>
			<path fill="#AA250D" d="M135.792,48.76c1.305-7.035,2.067-16.056,0.447-25.404c-2.694-4.086-6.681-7.24-11.381-8.882
				c2.459,5.958,7.805,22.702,0.403,42.377C129.535,55.265,133.193,52.416,135.792,48.76z"/>
		</g>
		<path fill="#D84A30" d="M134.406,8.833l-7.767,3.315c0,0,11.461,21.407,0.474,47.17l7.672,3.315
			C134.785,62.634,146.767,33.792,134.406,8.833z"/>
	</g>
	<g>
		<g>
			<path fill="#BE270D" d="M15.142,56.992c2.327,0.813,4.825,1.26,7.43,1.26c12.437,0,22.519-10.082,22.519-22.519
				S35.009,13.214,22.572,13.214c-2.755,0-5.393,0.497-7.833,1.402C7.337,34.291,12.683,51.035,15.142,56.992z"/>
			<path fill="#BE270D" d="M4.208,22.707c-2.614,3.678-4.156,8.171-4.156,13.027c0,4.573,1.367,8.825,3.709,12.377
				C2.141,38.763,2.904,29.741,4.208,22.707z"/>
			<path fill="#AA250D" d="M4.208,22.707C2.904,29.741,2.141,38.763,3.762,48.11c2.694,4.086,6.681,7.24,11.381,8.882
				c-2.459-5.958-7.805-22.702-0.403-42.377C10.465,16.202,6.807,19.051,4.208,22.707z"/>
		</g>
		<path fill="#D84A30" d="M5.594,62.634l7.767-3.315c0,0-11.461-21.407-0.474-47.17L5.215,8.833
			C5.215,8.833-6.767,37.675,5.594,62.634z"/>
	</g>
	<g>
		<g>
			<path fill="#BE270D" d="M124.858,73.011c-2.327-0.813-4.825-1.26-7.43-1.26c-12.437,0-22.519,10.082-22.519,22.519
				s10.082,22.519,22.519,22.519c2.755,0,5.393-0.497,7.833-1.402C132.663,95.713,127.317,78.969,124.858,73.011z"/>
			<path fill="#BE270D" d="M135.792,107.297c2.614-3.678,4.156-8.171,4.156-13.027c0-4.573-1.367-8.825-3.709-12.377
				C137.859,91.241,137.096,100.262,135.792,107.297z"/>
			<path fill="#AA250D" d="M135.792,107.297c1.305-7.035,2.067-16.056,0.447-25.404c-2.694-4.086-6.681-7.24-11.381-8.882
				c2.459,5.958,7.805,22.702,0.403,42.377C129.535,113.801,133.193,110.952,135.792,107.297z"/>
		</g>
		<path fill="#D84A30" d="M134.406,67.37l-7.767,3.315c0,0,11.461,21.407,0.474,47.17l7.672,3.315
			C134.785,121.17,146.767,92.328,134.406,67.37z"/>
	</g>
	<g>
		<g>
			<path fill="#BE270D" d="M15.142,115.529c2.327,0.813,4.825,1.26,7.43,1.26c12.437,0,22.519-10.082,22.519-22.519
				S35.009,71.75,22.572,71.75c-2.755,0-5.393,0.497-7.833,1.402C7.337,92.827,12.683,109.571,15.142,115.529z"/>
			<path fill="#BE270D" d="M4.208,81.243c-2.614,3.678-4.156,8.171-4.156,13.027c0,4.573,1.367,8.825,3.709,12.377
				C2.141,97.299,2.904,88.278,4.208,81.243z"/>
			<path fill="#AA250D" d="M4.208,81.243c-1.305,7.035-2.067,16.056-0.447,25.404c2.694,4.086,6.681,7.24,11.381,8.882
				c-2.459-5.958-7.805-22.702-0.403-42.377C10.465,74.738,6.807,77.587,4.208,81.243z"/>
		</g>
		<path fill="#D84A30" d="M5.594,121.17l7.767-3.315c0,0-11.461-21.407-0.474-47.17L5.215,67.37
			C5.215,67.37-6.767,96.212,5.594,121.17z"/>
	</g>
	<rect x="23.054" fill="#A3733A" width="93" height="132"/>
	<g>
		<circle fill="#FFFFFF" stroke="#DFE7E7" stroke-width="2" stroke-miterlimit="10" cx="94.127" cy="33.922" r="13.569"/>
		<circle fill="#DFE7E7" stroke="#A5A5A5" stroke-width="2" stroke-miterlimit="10" cx="94.127" cy="33.78" r="6.749"/>
	</g>
	<g>
		<circle fill="#FFFFFF" stroke="#DFE7E7" stroke-width="2" stroke-miterlimit="10" cx="45.82" cy="33.354" r="13.569"/>
		<circle fill="#DFE7E7" stroke="#A5A5A5" stroke-width="2" stroke-miterlimit="10" cx="45.82" cy="33.212" r="6.749"/>
	</g>
	<g>
		<circle fill="#FFFFFF" stroke="#DFE7E7" stroke-width="2" stroke-miterlimit="10" cx="94.127" cy="94.163" r="13.569"/>
		<circle fill="#DFE7E7" stroke="#A5A5A5" stroke-width="2" stroke-miterlimit="10" cx="94.127" cy="94.021" r="6.749"/>
	</g>
	<g>
		<circle fill="#FFFFFF" stroke="#DFE7E7" stroke-width="2" stroke-miterlimit="10" cx="45.82" cy="93.595" r="13.569"/>
		<circle fill="#DFE7E7" stroke="#A5A5A5" stroke-width="2" stroke-miterlimit="10" cx="45.82" cy="93.453" r="6.749"/>
	</g>
</g>
<g>
	<path d="M76.358,55.473c-0.72-0.04-1.64,0-2.639,0.16c-5.52,0.92-8.439,4.959-9.039,9.238h0.12c1.24-1.64,3.399-3,6.279-3
		c4.599,0,7.839,3.319,7.839,8.398c0,4.759-3.24,9.159-8.639,9.159c-5.56,0-9.199-4.319-9.199-11.078
		c0-5.119,1.84-9.159,4.399-11.718c2.16-2.12,5.039-3.439,8.319-3.839c1.039-0.16,1.919-0.2,2.559-0.2V55.473z M75.359,70.47
		c0-3.719-2.12-5.959-5.359-5.959c-2.12,0-4.079,1.32-5.039,3.199c-0.24,0.4-0.4,0.92-0.4,1.56c0.08,4.279,2.04,7.438,5.72,7.438
		C73.319,76.709,75.359,74.19,75.359,70.47z"/>
</g>
</svg>
