<?xml version="1.0" encoding="utf-8"?>
<!-- Generator: Adobe Illustrator 17.0.0, SVG Export Plug-In . SVG Version: 6.00 Build 0)  -->
<!DOCTYPE svg PUBLIC "-//W3C//DTD SVG 1.1//EN" "http://www.w3.org/Graphics/SVG/1.1/DTD/svg11.dtd">
<svg version="1.1" id="Layer_1" xmlns="http://www.w3.org/2000/svg" xmlns:xlink="http://www.w3.org/1999/xlink" x="0px" y="0px"
	 width="140px" height="132px" viewBox="0 0 140 132" enable-background="new 0 0 140 132" xml:space="preserve">
<g>
	<g>
		<g>
			<path fill="#BE270D" d="M124.858,14.226c-2.327-0.813-4.825-1.26-7.43-1.26c-12.437,0-22.519,10.082-22.519,22.519
				s10.082,22.519,22.519,22.519c2.755,0,5.393-0.497,7.833-1.402C132.663,36.927,127.317,20.183,124.858,14.226z"/>
			<path fill="#BE270D" d="M135.792,48.511c2.614-3.678,4.156-8.171,4.156-13.027c0-4.573-1.367-8.825-3.709-12.377
				C137.859,32.455,137.096,41.477,135.792,48.511z"/>
			<path fill="#AA250D" d="M135.792,48.511c1.305-7.035,2.067-16.056,0.447-25.404c-2.694-4.086-6.681-7.24-11.381-8.882
				c2.459,5.958,7.805,22.702,0.403,42.377C129.535,55.016,133.193,52.167,135.792,48.511z"/>
		</g>
		<path fill="#D84A30" d="M134.406,8.584l-7.767,3.315c0,0,11.461,21.407,0.474,47.17l7.672,3.315
			C134.785,62.385,146.767,33.543,134.406,8.584z"/>
	</g>
	<g>
		<g>
			<path fill="#BE270D" d="M15.142,56.744c2.327,0.813,4.825,1.26,7.43,1.26c12.437,0,22.519-10.082,22.519-22.519
				S35.009,12.965,22.572,12.965c-2.755,0-5.393,0.497-7.833,1.402C7.337,34.042,12.683,50.786,15.142,56.744z"/>
			<path fill="#BE270D" d="M4.208,22.458c-2.614,3.678-4.156,8.171-4.156,13.027c0,4.573,1.367,8.825,3.709,12.377
				C2.141,38.514,2.904,29.492,4.208,22.458z"/>
			<path fill="#AA250D" d="M4.208,22.458c-1.305,7.035-2.067,16.056-0.447,25.404c2.694,4.086,6.681,7.24,11.381,8.882
				c-2.459-5.958-7.805-22.702-0.403-42.377C10.465,15.953,6.807,18.802,4.208,22.458z"/>
		</g>
		<path fill="#D84A30" d="M5.594,62.385l7.767-3.315c0,0-11.461-21.407-0.474-47.17L5.215,8.584
			C5.215,8.584-6.767,37.426,5.594,62.385z"/>
	</g>
	<g>
		<g>
			<path fill="#BE270D" d="M124.858,72.762c-2.327-0.813-4.825-1.26-7.43-1.26c-12.437,0-22.519,10.082-22.519,22.519
				s10.082,22.519,22.519,22.519c2.755,0,5.393-0.497,7.833-1.402C132.663,95.464,127.317,78.72,124.858,72.762z"/>
			<path fill="#BE270D" d="M135.792,107.048c2.614-3.678,4.156-8.171,4.156-13.027c0-4.573-1.367-8.825-3.709-12.377
				C137.859,90.992,137.096,100.013,135.792,107.048z"/>
			<path fill="#AA250D" d="M135.792,107.048c1.305-7.035,2.067-16.056,0.447-25.404c-2.694-4.086-6.681-7.24-11.381-8.882
				c2.459,5.958,7.805,22.702,0.403,42.377C129.535,113.552,133.193,110.704,135.792,107.048z"/>
		</g>
		<path fill="#D84A30" d="M134.406,67.121l-7.767,3.315c0,0,11.461,21.407,0.474,47.17l7.672,3.315
			C134.785,120.921,146.767,92.079,134.406,67.121z"/>
	</g>
	<g>
		<g>
			<path fill="#BE270D" d="M15.142,115.28c2.327,0.813,4.825,1.26,7.43,1.26c12.437,0,22.519-10.082,22.519-22.519
				S35.009,71.502,22.572,71.502c-2.755,0-5.393,0.497-7.833,1.402C7.337,92.578,12.683,109.322,15.142,115.28z"/>
			<path fill="#BE270D" d="M4.208,80.994c-2.614,3.678-4.156,8.171-4.156,13.027c0,4.573,1.367,8.825,3.709,12.377
				C2.141,97.05,2.904,88.029,4.208,80.994z"/>
			<path fill="#AA250D" d="M4.208,80.994c-1.305,7.035-2.067,16.056-0.447,25.404c2.694,4.086,6.681,7.24,11.381,8.882
				c-2.459-5.958-7.805-22.702-0.403-42.377C10.465,74.49,6.807,77.338,4.208,80.994z"/>
		</g>
		<path fill="#D84A30" d="M5.594,120.921l7.767-3.315c0,0-11.461-21.407-0.474-47.17l-7.672-3.315
			C5.215,67.121-6.767,95.963,5.594,120.921z"/>
	</g>
	<rect x="22.668" fill="#A3733A" width="93" height="132"/>
	<g>
		<circle fill="#FFFFFF" stroke="#DFE7E7" stroke-width="2" stroke-miterlimit="10" cx="94.127" cy="33.673" r="13.569"/>
		<circle fill="#DFE7E7" stroke="#A5A5A5" stroke-width="2" stroke-miterlimit="10" cx="94.127" cy="33.531" r="6.749"/>
	</g>
	<g>
		<circle fill="#FFFFFF" stroke="#DFE7E7" stroke-width="2" stroke-miterlimit="10" cx="45.82" cy="33.105" r="13.569"/>
		<circle fill="#DFE7E7" stroke="#A5A5A5" stroke-width="2" stroke-miterlimit="10" cx="45.82" cy="32.963" r="6.749"/>
	</g>
	<g>
		<circle fill="#FFFFFF" stroke="#DFE7E7" stroke-width="2" stroke-miterlimit="10" cx="94.127" cy="93.914" r="13.569"/>
		<circle fill="#DFE7E7" stroke="#A5A5A5" stroke-width="2" stroke-miterlimit="10" cx="94.127" cy="93.772" r="6.749"/>
	</g>
	<g>
		<circle fill="#FFFFFF" stroke="#DFE7E7" stroke-width="2" stroke-miterlimit="10" cx="45.82" cy="93.346" r="13.569"/>
		<circle fill="#DFE7E7" stroke="#A5A5A5" stroke-width="2" stroke-miterlimit="10" cx="45.82" cy="93.204" r="6.749"/>
	</g>
</g>
<g>
	<path d="M78.199,52.753v2.32L66.88,78.749h-3.639l11.277-22.996v-0.08H61.801v-2.919H78.199z"/>
</g>
</svg>
