<?xml version="1.0" encoding="utf-8"?>
<!-- Generator: Adobe Illustrator 17.0.0, SVG Export Plug-In . SVG Version: 6.00 Build 0)  -->
<!DOCTYPE svg PUBLIC "-//W3C//DTD SVG 1.1//EN" "http://www.w3.org/Graphics/SVG/1.1/DTD/svg11.dtd">
<svg version="1.1" id="Layer_1" xmlns="http://www.w3.org/2000/svg" xmlns:xlink="http://www.w3.org/1999/xlink" x="0px" y="0px"
	 width="176px" height="132px" viewBox="0 0 176 132" enable-background="new 0 0 176 132" xml:space="preserve">
<g>
	<path d="M107.031,59.579h-0.08l-4.52,2.44l-0.68-2.68l5.679-3.04h3v25.996h-3.399V59.579z"/>
	<path d="M133.189,69.017c0,8.838-3.28,13.718-9.039,13.718c-5.079,0-8.519-4.759-8.599-13.358c0-8.718,3.76-13.518,9.039-13.518
		C130.069,55.859,133.189,60.739,133.189,69.017z M119.071,69.417c0,6.759,2.08,10.598,5.279,10.598c3.6,0,5.319-4.199,5.319-10.838
		c0-6.399-1.64-10.598-5.279-10.598C121.311,58.579,119.071,62.338,119.071,69.417z"/>
</g>
<g>
	<g>
		<g>
			<path fill="#BE270D" d="M111.122,117.723c0.767-2.194,1.188-4.55,1.188-7.005c0-11.726-9.506-21.233-21.233-21.233
				s-21.233,9.506-21.233,21.233c0,2.597,0.468,5.085,1.322,7.385C89.717,125.082,105.504,120.042,111.122,117.723z"/>
			<path fill="#BE270D" d="M78.795,128.032c3.468,2.464,7.704,3.918,12.282,3.918c4.312,0,8.321-1.289,11.67-3.497
				C93.934,129.981,85.428,129.262,78.795,128.032z"/>
			<path fill="#AA250D" d="M78.795,128.032c6.633,1.23,15.139,1.949,23.952,0.421c3.852-2.54,6.826-6.3,8.375-10.731
				c-5.617,2.319-21.405,7.359-39.955,0.38C72.662,122.133,75.348,125.582,78.795,128.032z"/>
		</g>
		<path fill="#D84A30" d="M116.441,126.726l-3.126-7.323c0,0-20.183,10.806-44.475,0.447l-3.126,7.234
			C65.715,127.083,92.908,138.38,116.441,126.726z"/>
	</g>
	<g>
		<g>
			<path fill="#BE270D" d="M71.033,14.277c-0.767,2.194-1.188,4.55-1.188,7.005c0,11.726,9.506,21.233,21.233,21.233
				s21.233-9.506,21.233-21.233c0-2.597-0.468-5.085-1.322-7.385C92.438,6.918,76.651,11.958,71.033,14.277z"/>
			<path fill="#BE270D" d="M103.36,3.968C99.892,1.504,95.656,0.05,91.078,0.05c-4.312,0-8.321,1.289-11.67,3.497
				C88.221,2.019,96.727,2.738,103.36,3.968z"/>
			<path fill="#AA250D" d="M103.36,3.968c-6.633-1.23-15.139-1.949-23.952-0.421c-3.852,2.54-6.826,6.3-8.375,10.731
				c5.617-2.319,21.405-7.359,39.955-0.38C109.493,9.867,106.807,6.418,103.36,3.968z"/>
		</g>
		<path fill="#D84A30" d="M65.715,5.274l3.126,7.323c0,0,20.183-10.806,44.475-0.447l3.126-7.234
			C116.441,4.917,89.247-6.38,65.715,5.274z"/>
	</g>
	<g>
		<g>
			<path fill="#BE270D" d="M165.777,117.723c0.767-2.194,1.188-4.55,1.188-7.005c0-11.726-9.506-21.233-21.233-21.233
				c-11.726,0-21.233,9.506-21.233,21.233c0,2.597,0.468,5.085,1.322,7.385C144.373,125.082,160.16,120.042,165.777,117.723z"/>
			<path fill="#BE270D" d="M133.451,128.032c3.468,2.464,7.704,3.918,12.282,3.918c4.312,0,8.321-1.289,11.67-3.497
				C148.589,129.981,140.083,129.262,133.451,128.032z"/>
			<path fill="#AA250D" d="M133.451,128.032c6.633,1.23,15.139,1.949,23.952,0.421c3.852-2.54,6.826-6.3,8.375-10.731
				c-5.617,2.319-21.405,7.359-39.955,0.38C127.318,122.133,130.004,125.582,133.451,128.032z"/>
		</g>
		<path fill="#D84A30" d="M171.096,126.726l-3.126-7.323c0,0-20.183,10.806-44.475,0.447l-3.126,7.234
			C120.37,127.083,147.564,138.38,171.096,126.726z"/>
	</g>
	<g>
		<g>
			<path fill="#BE270D" d="M125.689,14.277c-0.767,2.194-1.188,4.55-1.188,7.005c0,11.726,9.506,21.233,21.233,21.233
				c11.726,0,21.233-9.506,21.233-21.233c0-2.597-0.468-5.085-1.322-7.385C147.094,6.918,131.306,11.958,125.689,14.277z"/>
			<path fill="#BE270D" d="M158.015,3.968c-3.468-2.464-7.704-3.918-12.282-3.918c-4.312,0-8.321,1.289-11.67,3.497
				C142.877,2.019,151.383,2.738,158.015,3.968z"/>
			<path fill="#AA250D" d="M158.015,3.968c-6.633-1.23-15.139-1.949-23.952-0.421c-3.852,2.54-6.826,6.3-8.375,10.731
				c5.617-2.319,21.405-7.359,39.955-0.38C164.148,9.867,161.462,6.418,158.015,3.968z"/>
		</g>
		<path fill="#D84A30" d="M120.37,5.274l3.126,7.323c0,0,20.183-10.806,44.475-0.447l3.126-7.234
			C171.096,4.917,143.902-6.38,120.37,5.274z"/>
	</g>
	<g>
		<g>
			<path fill="#BE270D" d="M55.93,117.723c0.767-2.194,1.188-4.55,1.188-7.005c0-11.726-9.506-21.233-21.233-21.233
				s-21.233,9.506-21.233,21.233c0,2.597,0.468,5.085,1.322,7.385C34.526,125.082,50.313,120.042,55.93,117.723z"/>
			<path fill="#BE270D" d="M23.604,128.032c3.468,2.464,7.704,3.918,12.282,3.918c4.312,0,8.321-1.289,11.67-3.497
				C38.742,129.981,30.236,129.262,23.604,128.032z"/>
			<path fill="#AA250D" d="M23.604,128.032c6.633,1.23,15.139,1.949,23.952,0.421c3.852-2.54,6.826-6.3,8.375-10.731
				c-5.617,2.319-21.405,7.359-39.955,0.38C17.471,122.133,20.157,125.582,23.604,128.032z"/>
		</g>
		<path fill="#D84A30" d="M61.249,126.726l-3.126-7.323c0,0-20.183,10.806-44.475,0.447l-3.126,7.234
			C10.523,127.083,37.717,138.38,61.249,126.726z"/>
	</g>
	<g>
		<g>
			<path fill="#BE270D" d="M15.842,14.277c-0.767,2.194-1.188,4.55-1.188,7.005c0,11.726,9.506,21.233,21.233,21.233
				s21.233-9.506,21.233-21.233c0-2.597-0.468-5.085-1.322-7.385C37.247,6.918,21.459,11.958,15.842,14.277z"/>
			<path fill="#BE270D" d="M48.168,3.968C44.701,1.504,40.464,0.05,35.886,0.05c-4.312,0-8.321,1.289-11.67,3.497
				C33.03,2.019,41.536,2.738,48.168,3.968z"/>
			<path fill="#AA250D" d="M48.168,3.968c-6.633-1.23-15.139-1.949-23.952-0.421c-3.852,2.54-6.826,6.3-8.375,10.731
				c5.617-2.319,21.405-7.359,39.955-0.38C54.301,9.867,51.615,6.418,48.168,3.968z"/>
		</g>
		<path fill="#D84A30" d="M10.523,5.274l3.126,7.323c0,0,20.183-10.806,44.475-0.447l3.126-7.234
			C61.249,4.917,34.055-6.38,10.523,5.274z"/>
	</g>
	<rect y="21.546" fill="#A3733A" width="176" height="88"/>
	<g>
		<circle fill="#FFFFFF" stroke="#DFE7E7" stroke-width="2" stroke-miterlimit="10" cx="91.178" cy="43.202" r="12.793"/>
		<circle fill="#DFE7E7" stroke="#A5A5A5" stroke-width="2" stroke-miterlimit="10" cx="91.312" cy="43.202" r="6.363"/>
	</g>
	<g>
		<circle fill="#FFFFFF" stroke="#DFE7E7" stroke-width="2" stroke-miterlimit="10" cx="145.834" cy="43.202" r="12.793"/>
		<circle fill="#DFE7E7" stroke="#A5A5A5" stroke-width="2" stroke-miterlimit="10" cx="145.968" cy="43.202" r="6.363"/>
	</g>
	<g>
		<circle fill="#FFFFFF" stroke="#DFE7E7" stroke-width="2" stroke-miterlimit="10" cx="34.915" cy="43.202" r="12.793"/>
		<circle fill="#DFE7E7" stroke="#A5A5A5" stroke-width="2" stroke-miterlimit="10" cx="35.049" cy="43.202" r="6.363"/>
	</g>
	<g>
		<circle fill="#FFFFFF" stroke="#DFE7E7" stroke-width="2" stroke-miterlimit="10" cx="91.178" cy="89.284" r="12.793"/>
		<circle fill="#DFE7E7" stroke="#A5A5A5" stroke-width="2" stroke-miterlimit="10" cx="91.312" cy="89.284" r="6.363"/>
	</g>
	<g>
		<circle fill="#FFFFFF" stroke="#DFE7E7" stroke-width="2" stroke-miterlimit="10" cx="145.834" cy="89.284" r="12.793"/>
		<circle fill="#DFE7E7" stroke="#A5A5A5" stroke-width="2" stroke-miterlimit="10" cx="145.968" cy="89.284" r="6.363"/>
	</g>
	<g>
		<circle fill="#FFFFFF" stroke="#DFE7E7" stroke-width="2" stroke-miterlimit="10" cx="34.915" cy="89.284" r="12.793"/>
		<circle fill="#DFE7E7" stroke="#A5A5A5" stroke-width="2" stroke-miterlimit="10" cx="35.049" cy="89.284" r="6.363"/>
	</g>
</g>
<g>
	<path d="M108.692,72.399c0-3.279,1.96-5.599,5.159-6.958l-0.04-0.12c-2.879-1.36-4.119-3.6-4.119-5.839
		c0-4.12,3.479-6.919,8.039-6.919c5.039,0,7.559,3.16,7.559,6.399c0,2.2-1.08,4.559-4.279,6.079v0.12
		c3.239,1.28,5.239,3.56,5.239,6.719c0,4.519-3.88,7.559-8.839,7.559C111.971,79.438,108.692,76.198,108.692,72.399z M122.69,72.239
		c0-3.16-2.2-4.679-5.719-5.679c-3.04,0.88-4.68,2.879-4.68,5.359c-0.12,2.639,1.88,4.959,5.199,4.959
		C120.65,76.878,122.69,74.919,122.69,72.239z M113.011,59.241c0,2.6,1.96,4,4.959,4.799c2.24-0.76,3.96-2.359,3.96-4.719
		c0-2.08-1.24-4.239-4.399-4.239C114.61,55.082,113.011,57.002,113.011,59.241z"/>
</g>
</svg>
