<?xml version="1.0" encoding="utf-8"?>
<!-- Generator: Adobe Illustrator 17.0.0, SVG Export Plug-In . SVG Version: 6.00 Build 0)  -->
<!DOCTYPE svg PUBLIC "-//W3C//DTD SVG 1.1//EN" "http://www.w3.org/Graphics/SVG/1.1/DTD/svg11.dtd">
<svg version="1.1" id="Layer_1" xmlns="http://www.w3.org/2000/svg" xmlns:xlink="http://www.w3.org/1999/xlink" x="0px" y="0px"
	 width="162.833px" height="40px" viewBox="0 0 162.833 40" enable-background="new 0 0 162.833 40" xml:space="preserve">
<g>
	<path fill="#FFFFFF" d="M15.18,14.19H6.896l-0.971,2.303c-0.64,1.526-0.959,2.46-0.959,2.804c0,0.22,0.059,0.377,0.179,0.472
		c0.119,0.095,0.422,0.171,0.909,0.228l1.375,0.157v0.901c-0.917-0.066-1.948-0.1-3.093-0.1c-1.375,0-2.582,0.033-3.623,0.1v-0.901
		l0.43-0.014c0.668-0.019,1.1-0.088,1.296-0.208c0.196-0.119,0.403-0.412,0.623-0.88c0.678-1.373,1.37-2.857,2.076-4.449
		l3.938-8.913c1.05-2.365,1.766-4.082,2.148-5.15h0.974l7.246,16.839c0.487,1.145,0.812,1.834,0.974,2.067
		c0.162,0.234,0.349,0.401,0.559,0.501c0.21,0.1,0.682,0.169,1.417,0.207v0.901c-1.241-0.066-2.425-0.1-3.551-0.1
		c-1.05,0-2.449,0.033-4.196,0.1v-0.901l1.417-0.086c0.506-0.037,0.807-0.09,0.902-0.157c0.144-0.105,0.215-0.238,0.215-0.401
		c0-0.171-0.143-0.619-0.43-1.345L15.18,14.19z M7.429,13.017h7.214l-3.604-8.595L7.429,13.017z"/>
	<path fill="#FFFFFF" d="M27.692,3.927v9.889c0,2.252,0.043,3.821,0.13,4.708c0.067,0.678,0.179,1.091,0.338,1.238
		s0.617,0.255,1.375,0.321l0.921,0.072v0.901c-1.043-0.066-1.985-0.1-2.827-0.1c-0.583,0-1.923,0.033-4.018,0.1v-0.901h1.031
		c0.62,0,1.026-0.086,1.217-0.257c0.191-0.171,0.31-0.51,0.358-1.016c0.104-1.05,0.157-2.475,0.157-4.278v-7.11
		c0-1.335-0.014-2.656-0.043-3.963c-0.019-0.553-0.093-0.932-0.222-1.137s-0.318-0.389-0.566-0.551
		C25.295,1.682,24.947,1.6,24.499,1.6H23.61V0.699c1.212,0.067,2.138,0.1,2.778,0.1c0.688,0,1.441-0.033,2.263-0.1
		c0.945,1.154,1.835,2.277,2.671,3.369c0.835,1.092,1.702,2.191,2.599,3.298l4.898,6.009c1.766,2.156,3.041,3.653,3.824,4.493V8.682
		c0-3.844-0.069-5.944-0.208-6.302c-0.138-0.358-0.689-0.584-1.654-0.68l-1.074-0.1V0.699c1.537,0.067,2.73,0.1,3.58,0.1
		c0.888,0,2.033-0.033,3.437-0.1V1.6h-1.102c-0.888,0-1.399,0.296-1.533,0.887c-0.086,0.391-0.129,2.48-0.129,6.266v6.452
		c0,1.736,0.076,3.81,0.229,6.224c-1.298-0.2-2.053-0.346-2.263-0.437c-0.21-0.09-0.41-0.24-0.601-0.45
		c-1.06-1.174-2.172-2.476-3.337-3.907L27.692,3.927z"/>
	<path fill="#FFFFFF" d="M67.831,14.29c-0.143,0.801-0.215,1.617-0.215,2.446c0,0.878,0.072,1.865,0.215,2.962
		c-1.27,0.496-2.705,0.893-4.304,1.195c-1.599,0.3-3.129,0.451-4.59,0.451c-2.253,0-4.231-0.441-5.936-1.324
		c-1.704-0.882-3.014-2.107-3.931-3.676s-1.375-3.35-1.375-5.344c0-2.06,0.492-3.893,1.475-5.501
		c0.983-1.607,2.353-2.856,4.11-3.748c1.757-0.892,3.981-1.338,6.673-1.338c1.098,0,2.11,0.071,3.036,0.214
		c0.926,0.143,2.134,0.429,3.623,0.859l1.217,0.329c-0.252,1.011-0.453,2.423-0.602,4.234h-0.902V5.105
		c0-0.935-0.077-1.483-0.229-1.646c-0.286-0.305-1.045-0.684-2.277-1.137c-1.232-0.453-2.64-0.68-4.225-0.68
		c-2.807,0-4.955,0.754-6.444,2.26c-1.623,1.641-2.435,3.811-2.435,6.509c0,2.595,0.731,4.779,2.191,6.553
		c1.718,2.098,4.062,3.147,7.032,3.147c1.546,0,3.222-0.34,5.026-1.018c0.057-0.803,0.086-1.659,0.086-2.567
		c0-1.176-0.019-1.852-0.057-2.029c-0.039-0.177-0.108-0.291-0.208-0.344s-0.599-0.117-1.497-0.194l-1.689-0.143v-0.902
		c2.186,0.095,3.809,0.143,4.869,0.143c0.917,0,1.704-0.048,2.363-0.143v0.716L67.831,14.29z"/>
	<path fill="#FFFFFF" d="M76.223,11.329v3.511l0.014,2.021c0,1.261,0.014,2.183,0.043,2.766c1.396,0.105,2.893,0.157,4.489,0.157
		c1.071,0,1.969-0.047,2.696-0.144c0.469-0.057,0.966-0.181,1.492-0.372c0.239-0.839,0.483-1.888,0.731-3.147h0.945
		c-0.258,2.095-0.387,3.492-0.387,4.189l0.028,0.646c-1.098,0.095-2.176,0.144-3.236,0.144l-2.248-0.044
		c-2.482-0.066-4.306-0.1-5.47-0.1c-1.117,0-2.602,0.033-4.453,0.1v-0.901h0.444c0.831,0,1.354-0.08,1.568-0.243
		c0.215-0.162,0.358-0.543,0.43-1.144c0.071-0.601,0.107-1.927,0.107-3.977V6.936c0-1.287-0.031-2.341-0.093-3.161
		c-0.063-0.82-0.129-1.309-0.201-1.467c-0.071-0.157-0.174-0.279-0.308-0.365c-0.133-0.086-0.544-0.162-1.231-0.229L70.48,1.6V0.699
		h1.546l1.518,0.05c0.85,0.034,1.494,0.05,1.933,0.05l5.499-0.084l2.606-0.017c0.888-0.01,1.785,0.024,2.692,0.1
		c-0.363,1.133-0.564,2.607-0.602,4.42H84.7c0-1.049-0.052-1.921-0.157-2.618c-1.126-0.419-2.511-0.629-4.152-0.629
		c-1.308,0-2.678,0.057-4.11,0.171c0.01,0.895,0,1.79-0.028,2.685l-0.029,2.199v2.899c0.945,0.067,1.781,0.1,2.506,0.1
		c2.272,0,3.558-0.079,3.859-0.236c0.301-0.157,0.451-0.646,0.451-1.467v-0.93h0.974c-0.067,1.44-0.1,2.589-0.1,3.448
		c0,0.906,0.033,1.974,0.1,3.204h-0.974v-0.83c0-0.915-0.179-1.476-0.537-1.681c-0.358-0.205-1.621-0.307-3.788-0.307
		C77.913,11.229,77.082,11.262,76.223,11.329z"/>
	<path fill="#FFFFFF" d="M93.994,19.655c0.935,0.047,1.847,0.072,2.735,0.072c1.794,0,3.198-0.048,4.21-0.144
		c0.706-0.076,1.437-0.214,2.191-0.415l0.859-3.362h0.931c-0.239,1.803-0.425,3.487-0.559,5.051
		c-0.859,0.142-2.033,0.214-3.523,0.214l-6.816-0.115c-0.917,0-2.344,0.052-4.282,0.157v-0.758c0.764-0.333,1.215-0.691,1.353-1.072
		s0.208-1.894,0.208-4.535V6.88c0-2.862-0.07-4.457-0.208-4.786C90.956,1.765,90.567,1.6,89.927,1.6h-1.561V0.699
		c2.272,0.067,3.781,0.1,4.525,0.1c0.993,0,2.339-0.033,4.038-0.1V1.6h-1.776c-0.506,0-0.826,0.146-0.959,0.437
		c-0.134,0.291-0.2,1.5-0.2,3.626v9.113l0.043,4.035L93.994,19.655z"/>
	<path fill="#FFFFFF" d="M106.424,20.155h0.902c0.888,0,1.42-0.214,1.597-0.644c0.176-0.429,0.265-2.484,0.265-6.166v-4.85
		c0-3.814-0.076-5.917-0.229-6.309c-0.153-0.391-0.611-0.587-1.375-0.587h-1.16V0.699c1.587,0.067,3.156,0.1,4.705,0.1
		c1.291,0,2.462-0.033,3.514-0.1V1.6h-1.108c-0.681,0-1.108,0.081-1.281,0.243c-0.172,0.162-0.274,0.573-0.302,1.23
		c-0.048,1.021-0.072,2.838-0.072,5.451v4.936c0,3.711,0.081,5.754,0.245,6.131c0.163,0.376,0.686,0.565,1.569,0.565h0.95v0.901
		c-1.176-0.066-2.458-0.1-3.844-0.1c-1.617,0-3.075,0.033-4.375,0.1V20.155z"/>
	<path fill="#FFFFFF" d="M120.158,3.927v9.889c0,2.252,0.043,3.821,0.129,4.708c0.069,0.678,0.18,1.091,0.339,1.238
		c0.159,0.148,0.617,0.255,1.376,0.321l0.921,0.072v0.901c-1.043-0.066-1.986-0.1-2.828-0.1c-0.583,0-1.922,0.033-4.017,0.1v-0.901
		h1.031c0.62,0,1.026-0.086,1.217-0.257c0.191-0.171,0.31-0.51,0.358-1.016c0.104-1.05,0.157-2.475,0.157-4.278v-7.11
		c0-1.335-0.015-2.656-0.043-3.963c-0.019-0.553-0.093-0.932-0.222-1.137c-0.129-0.205-0.318-0.389-0.566-0.551
		c-0.249-0.162-0.597-0.243-1.045-0.243h-0.888V0.699c1.212,0.067,2.138,0.1,2.779,0.1c0.686,0,1.44-0.033,2.263-0.1
		c0.945,1.154,1.834,2.277,2.67,3.369c0.836,1.092,1.701,2.191,2.599,3.298l4.898,6.009c1.766,2.156,3.04,3.653,3.822,4.493V8.682
		c0-3.844-0.069-5.944-0.208-6.302c-0.137-0.358-0.69-0.584-1.654-0.68l-1.073-0.1V0.699c1.538,0.067,2.73,0.1,3.58,0.1
		c0.887,0,2.033-0.033,3.437-0.1V1.6h-1.103c-0.887,0-1.397,0.296-1.532,0.887c-0.086,0.391-0.129,2.48-0.129,6.266v6.452
		c0,1.736,0.077,3.81,0.229,6.224c-1.298-0.2-2.053-0.346-2.263-0.437c-0.21-0.09-0.411-0.24-0.602-0.45
		c-1.058-1.174-2.171-2.476-3.336-3.907L120.158,3.927z"/>
	<path fill="#FFFFFF" d="M140.463,10.871c0-3.138,1.012-5.665,3.038-7.582c2.025-1.917,4.723-2.875,8.096-2.875
		c3.305,0,5.897,0.889,7.774,2.668c1.877,1.779,2.815,4.141,2.815,7.088c0,3.176-1.088,5.832-3.266,7.969
		c-2.178,2.137-4.925,3.205-8.24,3.205c-2.073,0-3.86-0.42-5.36-1.26c-1.5-0.839-2.684-2.064-3.554-3.676
		C140.897,14.796,140.463,12.95,140.463,10.871z M143.37,9.698c0,2.156,0.371,4.032,1.111,5.629c0.74,1.598,1.732,2.795,2.974,3.591
		c1.243,0.797,2.661,1.195,4.257,1.195c1.481,0,2.776-0.339,3.885-1.016c1.108-0.677,1.98-1.688,2.615-3.033
		c0.635-1.345,0.953-2.98,0.953-4.907c0-2.022-0.351-3.75-1.054-5.186c-0.702-1.436-1.665-2.515-2.887-3.241
		c-1.223-0.725-2.671-1.087-4.343-1.087c-1.529,0-2.848,0.32-3.956,0.959c-1.108,0.639-1.978,1.576-2.609,2.811
		C143.686,6.648,143.37,8.076,143.37,9.698z"/>
</g>
<g>
	<path fill="#F90000" d="M7.807,10.528c0,0,22.014-4.731,42.848,10.174c19.596,10.727,49.352,10.97,52.728,10.893
		c3.629-0.082,37.695-2.843,51.031-20.413c0,0-6.887,22.588-54.573,22.911c-15.837,0.107-33.86-3.219-43.804-8.244
		C44.746,20.145,30.395,6.531,7.807,10.528z"/>
	<path fill="#FFFFFF" d="M7.807,10.528c0,0,20.344-4.663,42.186,8.327s49.763,10.908,53.39,10.742
		c3.626-0.167,37.695-0.844,51.031-18.414c0,0-6.887,20.59-54.573,20.912c-15.837,0.107-34.257-3.081-43.804-8.244
		C50.105,20.644,30.395,6.531,7.807,10.528z"/>
	<path fill="#048904" d="M7.321,10.612c0,0,20.83-6.745,42.672,6.245s49.763,10.908,53.39,10.742
		c3.626-0.167,38.05,0.416,51.386-17.154c0,0-7.242,19.329-54.928,19.652c-27.047,0.025-35.924-4.08-44.436-8.088
		C44.698,15.564,29.909,6.615,7.321,10.612z"/>
</g>
<g>
	<path fill="#FFFFFF" d="M28.114,39.734l0.067-0.417h0.422c0.359,0,0.574-0.067,0.644-0.202c0.094-0.167,0.264-0.984,0.508-2.449
		l0.541-3.246c0.118-0.703,0.178-1.176,0.178-1.421c0-0.172-0.048-0.289-0.142-0.352c-0.094-0.063-0.306-0.095-0.637-0.095h-0.478
		l0.067-0.416l1.783,0.042l2.848-0.067c0.914,0,1.558,0.191,1.932,0.573c0.374,0.382,0.561,0.888,0.561,1.52
		c0,0.816-0.305,1.513-0.912,2.093c-0.609,0.579-1.362,0.868-2.26,0.868c-0.315,0-0.704-0.08-1.17-0.239l-0.043-0.434
		c0.381,0.135,0.698,0.202,0.951,0.202c0.295,0,0.576-0.093,0.844-0.278c0.269-0.185,0.489-0.469,0.663-0.851
		c0.174-0.382,0.261-0.804,0.261-1.27c0-0.543-0.136-0.95-0.408-1.224c-0.272-0.273-0.672-0.41-1.199-0.41
		c-0.373,0-0.694,0.03-0.964,0.092l-0.424,2.523l-0.497,2.964c-0.147,0.89-0.221,1.447-0.221,1.672c0,0.139,0.045,0.233,0.135,0.282
		c0.155,0.081,0.422,0.122,0.802,0.122h0.356l-0.067,0.417c-1.143-0.045-1.833-0.067-2.07-0.067L28.114,39.734z"/>
	<path fill="#FFFFFF" d="M42.73,39.734l0.067-0.417h0.379c0.233,0,0.393-0.016,0.479-0.049c0.085-0.032,0.148-0.072,0.189-0.119
		c0.041-0.047,0.079-0.136,0.116-0.266s0.118-0.566,0.245-1.305c0.176-1.008,0.351-2.031,0.526-3.068
		c0.237-1.421,0.356-2.282,0.356-2.584c0-0.131-0.053-0.225-0.159-0.285c-0.106-0.06-0.343-0.089-0.71-0.089h-0.325l0.067-0.416
		c1.127,0.028,1.795,0.042,2.003,0.042l2.028-0.042l-0.074,0.416h-0.152c-0.413,0-0.664,0.025-0.754,0.076
		c-0.09,0.052-0.157,0.142-0.201,0.273c-0.065,0.183-0.16,0.643-0.282,1.378l-0.693,4.164c-0.127,0.751-0.19,1.237-0.19,1.458
		c0,0.146,0.053,0.253,0.159,0.318c0.106,0.065,0.333,0.098,0.68,0.098h0.367l-0.073,0.417c-0.951-0.041-1.661-0.061-2.131-0.061
		C44.079,39.672,43.441,39.693,42.73,39.734z"/>
	<path fill="#FFFFFF" d="M54.06,39.703l-0.024-0.361c0.29-0.281,0.987-1.115,2.088-2.502l4-5.036h-1.58
		c-1.352,0-2.164,0.051-2.437,0.153c-0.119,0.045-0.288,0.485-0.509,1.321h-0.472l0.123-0.599c0.114-0.591,0.191-1.091,0.232-1.5
		l0.067-0.055l3.699,0.055h3.161v0.343c-0.339,0.354-1.205,1.412-2.601,3.172c-1.603,2.005-2.742,3.445-3.415,4.317l1.927,0.024
		c1.244,0,2.132-0.071,2.663-0.215c0.224-0.391,0.405-0.865,0.544-1.419h0.459c-0.184,0.754-0.341,1.511-0.472,2.27l-0.055,0.03
		c-0.988-0.02-2.034-0.03-3.136-0.03h-3.001L54.06,39.703z"/>
	<path fill="#FFFFFF" d="M68.699,39.703l-0.024-0.361c0.29-0.281,0.987-1.115,2.088-2.502l4-5.036h-1.58
		c-1.352,0-2.164,0.051-2.437,0.153c-0.119,0.045-0.288,0.485-0.509,1.321h-0.472l0.123-0.599c0.114-0.591,0.191-1.091,0.232-1.5
		l0.067-0.055l3.699,0.055h3.161v0.343c-0.339,0.354-1.205,1.412-2.601,3.172c-1.603,2.005-2.742,3.445-3.415,4.317l1.927,0.024
		c1.244,0,2.132-0.071,2.663-0.215c0.224-0.391,0.405-0.865,0.544-1.419h0.459c-0.184,0.754-0.341,1.511-0.472,2.27l-0.055,0.03
		c-0.988-0.02-2.034-0.03-3.136-0.03h-3.001L68.699,39.703z"/>
	<path fill="#FFFFFF" d="M83.244,39.734l0.067-0.417c0.429-0.057,0.68-0.12,0.753-0.189c0.074-0.069,0.161-0.353,0.264-0.852
		c0.041-0.204,0.204-1.161,0.49-2.872l0.424-2.535c0.082-0.486,0.123-0.81,0.123-0.974c0-0.11-0.041-0.187-0.123-0.232
		c-0.131-0.073-0.341-0.11-0.631-0.11h-0.453l0.067-0.416l0.723,0.018l0.68,0.024l2.254-0.024l2.021-0.006
		c0.318,0,0.576,0.017,0.772,0.049l0.062,0.049c-0.131,0.641-0.237,1.281-0.318,1.921h-0.429l0.019-0.403l0.006-0.49
		c0-0.187-0.06-0.302-0.178-0.343c-0.343-0.127-0.942-0.19-1.794-0.19c-0.359,0-0.702,0.024-1.03,0.074
		c-0.22,1.313-0.395,2.354-0.524,3.121l1.797,0.049c0.155,0,0.519-0.017,1.091-0.049l0.037,0.079l-0.147,0.593
		c-0.808-0.04-1.601-0.061-2.38-0.061c-0.175,0-0.341,0.004-0.495,0.012l-0.582,3.451c0.437,0.057,0.876,0.086,1.317,0.086
		c0.662,0,1.215-0.039,1.66-0.117c0.237-0.04,0.382-0.085,0.435-0.135c0.074-0.077,0.176-0.338,0.307-0.783l0.159-0.508h0.441
		l-0.195,1.114c-0.069,0.367-0.118,0.681-0.147,0.942l-0.092,0.104c-0.188,0.012-0.382,0.019-0.581,0.019l-4.796-0.086
		C83.973,39.648,83.615,39.676,83.244,39.734z"/>
	<path fill="#FFFFFF" d="M97.015,39.734l0.067-0.417h0.361c0.294,0,0.483-0.038,0.567-0.116c0.083-0.077,0.176-0.382,0.278-0.912
		l0.398-2.431l0.521-3.124c0.061-0.355,0.092-0.623,0.092-0.802c0-0.131-0.045-0.226-0.135-0.288
		c-0.09-0.061-0.264-0.092-0.521-0.092h-0.502l0.067-0.416c0.437,0.028,1.118,0.042,2.044,0.042l2.429-0.055
		c0.656,0,1.141,0.067,1.452,0.202c0.313,0.135,0.562,0.343,0.747,0.625c0.186,0.281,0.278,0.606,0.278,0.973
		c0,0.568-0.202,1.054-0.606,1.46c-0.402,0.406-1.054,0.695-1.955,0.867l0.855,1.396l0.812,1.372
		c0.375,0.637,0.624,1.013,0.746,1.128c0.123,0.114,0.296,0.171,0.521,0.171h0.215l-0.074,0.417
		c-0.474-0.041-0.891-0.061-1.25-0.061c-0.335,0-0.672,0.02-1.012,0.061l-0.194-0.367c-0.184-0.359-0.364-0.694-0.543-1.003
		l-0.83-1.438c-0.26-0.448-0.608-1.007-1.043-1.675l0.031-0.202l0.446,0.013c0.657,0,1.191-0.169,1.6-0.505
		c0.41-0.337,0.615-0.842,0.615-1.515c0-0.461-0.124-0.804-0.373-1.029c-0.249-0.224-0.655-0.337-1.219-0.337
		c-0.225,0-0.537,0.033-0.937,0.099l-0.386,2.315l-0.581,3.479c-0.119,0.71-0.178,1.161-0.178,1.352c0,0.143,0.05,0.246,0.149,0.306
		c0.101,0.061,0.324,0.092,0.671,0.092h0.343l-0.067,0.417l-2.077-0.067C98.562,39.667,97.954,39.689,97.015,39.734z"/>
	<path fill="#FFFFFF" d="M112.425,39.734l0.067-0.417h0.379c0.233,0,0.393-0.016,0.479-0.049c0.085-0.032,0.148-0.072,0.189-0.119
		c0.041-0.047,0.079-0.136,0.116-0.266s0.118-0.566,0.245-1.305c0.176-1.008,0.351-2.031,0.526-3.068
		c0.237-1.421,0.356-2.282,0.356-2.584c0-0.131-0.053-0.225-0.159-0.285s-0.343-0.089-0.71-0.089h-0.325l0.067-0.416
		c1.127,0.028,1.795,0.042,2.003,0.042l2.028-0.042l-0.074,0.416h-0.152c-0.413,0-0.664,0.025-0.754,0.076
		c-0.09,0.052-0.157,0.142-0.201,0.273c-0.065,0.183-0.16,0.643-0.282,1.378l-0.693,4.164c-0.127,0.751-0.19,1.237-0.19,1.458
		c0,0.146,0.053,0.253,0.159,0.318c0.106,0.065,0.333,0.098,0.68,0.098h0.367l-0.073,0.417c-0.951-0.041-1.661-0.061-2.131-0.061
		C113.774,39.672,113.135,39.693,112.425,39.734z"/>
	<path fill="#FFFFFF" d="M123.113,39.734l0.019-0.417h0.238c0.163,0,0.3-0.02,0.41-0.061c0.11-0.041,0.2-0.108,0.27-0.203
		l0.49-0.832l3.24-5.536c0.457-0.78,0.762-1.316,0.912-1.61h1.207c0.053,0.404,0.111,0.825,0.177,1.262l0.846,5.388
		c0.09,0.584,0.156,0.96,0.199,1.13c0.042,0.169,0.093,0.278,0.149,0.327c0.058,0.05,0.172,0.082,0.343,0.099l0.275,0.03
		c0.095,0.004,0.192,0.006,0.294,0.006l0.007,0.417c-0.498-0.041-1.074-0.061-1.728-0.061c-0.837,0-1.525,0.02-2.064,0.061
		l0.006-0.417h0.239c0.281,0,0.484-0.024,0.606-0.073c0.123-0.049,0.185-0.149,0.185-0.301c0-0.254-0.033-0.601-0.099-1.042
		l-0.208-1.546l-0.975-0.006l-1.82,0.006l-0.511,0.92c-0.535,0.969-0.803,1.55-0.803,1.741c0,0.095,0.049,0.162,0.147,0.203
		c0.154,0.065,0.478,0.098,0.968,0.098l-0.074,0.417c-0.502-0.041-0.996-0.061-1.483-0.061
		C124.086,39.672,123.598,39.693,123.113,39.734z M128.533,32.502l-1.901,3.248l1.208,0.012l1.197-0.012L128.533,32.502z"/>
</g>
</svg>
