<?xml version="1.0" encoding="utf-8"?>
<!-- Generator: Adobe Illustrator 21.1.0, SVG Export Plug-In . SVG Version: 6.00 Build 0)  -->
<svg version="1.1" id="Layer_1" xmlns="http://www.w3.org/2000/svg" xmlns:xlink="http://www.w3.org/1999/xlink" x="0px" y="0px"
	 viewBox="0 0 1332.5 909.5" style="enable-background:new 0 0 1332.5 909.5;" xml:space="preserve">
<style type="text/css">
	.st0{fill:#E6E2E3;}
	.st1{fill:#E6EBED;stroke:#B5C3CB;stroke-width:5;stroke-miterlimit:10;}
	.st2{fill:#AD9E86;}
	.st3{fill:#B4C7D1;}
	.st4{fill:#9E7F5E;}
	.st5{fill:#5D5D5D;}
	.st6{opacity:0.5;fill:#FFFFFF;}
	.st7{font-family:'MyriadPro-Regular';}
	.st8{font-size:52.4405px;}
	.st9{font-size:31.5888px;}
</style>
<g>
	<g>
		<g>
			<rect x="239.6" y="1.6" class="st0" width="1092.9" height="907.9"/>
			<rect x="266.6" y="33.4" class="st1" width="1039" height="844.4"/>
		</g>
		<g>
			<rect x="437.5" y="1.6" class="st2" width="182.5" height="6.4"/>
			<rect x="437.5" y="28.1" class="st2" width="182.5" height="6.4"/>
			<rect x="437.5" y="8" class="st3" width="182.5" height="20.1"/>
		</g>
		<g>
			<rect x="1326.9" y="311.2" class="st2" width="5.6" height="235.6"/>
			<rect x="1304.4" y="311.2" class="st2" width="5.6" height="235.6"/>
			<rect x="1310" y="311.2" class="st4" width="16.9" height="235.6"/>
		</g>
		<g>
			<rect x="262.2" y="311.2" class="st2" width="5.6" height="235.6"/>
			<rect x="239.6" y="311.2" class="st2" width="5.6" height="235.6"/>
			<rect x="245.3" y="311.2" class="st4" width="16.9" height="235.6"/>
		</g>
		<g>
			<rect x="944.1" y="1.6" class="st2" width="182.5" height="6.4"/>
			<rect x="944.1" y="28.1" class="st2" width="182.5" height="6.4"/>
			<rect x="944.1" y="8" class="st3" width="182.5" height="20.1"/>
		</g>
	</g>
	<rect class="st5" width="238.8" height="907.9"/>
	<text transform="matrix(0 -1 1 0 135.0473 536.9335)" class="st6 st7 st8">Kitchen</text>
	<rect x="1147.6" y="332.9" class="st5" width="78.8" height="194.6"/>
	<text transform="matrix(0 -1 1 0 1196.8042 496.7196)" class="st6 st7 st9">Reception</text>
</g>
</svg>
