<?xml version="1.0" encoding="utf-8"?>
<!-- Generator: Adobe Illustrator 21.1.0, SVG Export Plug-In . SVG Version: 6.00 Build 0)  -->
<svg version="1.1" id="Layer_1" xmlns="http://www.w3.org/2000/svg" xmlns:xlink="http://www.w3.org/1999/xlink" x="0px" y="0px"
	 viewBox="0 0 246.3 136" style="enable-background:new 0 0 246.3 136;" xml:space="preserve">
<style type="text/css">
	.st0{fill:#BE270D;}
	.st1{fill:#AA250D;}
	.st2{fill:#D84A30;}
	.st3{fill:#A3733A;}
	.st4{fill:#FFFFFF;stroke:#DFE7E7;stroke-width:2;stroke-miterlimit:10;}
	.st5{fill:#DFE7E7;stroke:#A5A5A5;stroke-width:2;stroke-miterlimit:10;}
</style>
<g>
	<g>
		<g>
			<path class="st0" d="M219.7,30.2c-4.1-1.4-8.5-2.2-13.1-2.2c-21.9,0-39.6,17.7-39.6,39.6s17.7,39.6,39.6,39.6
				c4.8,0,9.5-0.9,13.8-2.5C233.4,70.1,224,40.6,219.7,30.2z"/>
			<path class="st0" d="M238.9,90.5c4.6-6.5,7.3-14.4,7.3-22.9c0-8-2.4-15.5-6.5-21.8C242.6,62.2,241.2,78.1,238.9,90.5z"/>
			<path class="st1" d="M238.9,90.5c2.3-12.4,3.6-28.3,0.8-44.7c-4.7-7.2-11.8-12.7-20-15.6c4.3,10.5,13.7,39.9,0.7,74.6
				C227.9,101.9,234.4,96.9,238.9,90.5z"/>
		</g>
		<path class="st2" d="M236.5,20.2l-13.7,5.8c0,0,20.2,37.7,0.8,83l13.5,5.8C237.2,114.9,258.3,64.1,236.5,20.2z"/>
	</g>
	<g>
		<g>
			<path class="st0" d="M26.6,105c4.1,1.4,8.5,2.2,13.1,2.2c21.9,0,39.6-17.7,39.6-39.6S61.6,27.9,39.7,27.9
				c-4.8,0-9.5,0.9-13.8,2.5C12.9,65,22.3,94.5,26.6,105z"/>
			<path class="st0" d="M7.4,44.6C2.8,51.1,0.1,59,0.1,67.6c0,8,2.4,15.5,6.5,21.8C3.8,72.9,5.1,57,7.4,44.6z"/>
			<path class="st1" d="M7.4,44.6C5.1,57,3.8,72.9,6.6,89.3c4.7,7.2,11.8,12.7,20,15.6C22.3,94.5,12.9,65,25.9,30.4
				C18.4,33.2,12,38.2,7.4,44.6z"/>
		</g>
		<path class="st2" d="M9.8,114.9l13.7-5.8c0,0-20.2-37.7-0.8-83L9.2,20.2C9.2,20.2-11.9,71,9.8,114.9z"/>
	</g>
	<rect x="39.6" class="st3" width="164" height="136"/>
	<g>
		<circle class="st4" cx="165.6" cy="67.4" r="23.9"/>
		<circle class="st5" cx="165.6" cy="67.1" r="11.9"/>
	</g>
	<g>
		<circle class="st4" cx="80.6" cy="67.4" r="23.9"/>
		<circle class="st5" cx="80.6" cy="67.1" r="11.9"/>
	</g>
</g>
</svg>
